<?xml version="1.0" encoding="UTF-8"?>
<!DOCTYPE svg PUBLIC "-//W3C//DTD SVG 1.1//EN" "http://www.w3.org/Graphics/SVG/1.1/DTD/svg11.dtd">
<svg xmlns="http://www.w3.org/2000/svg" version="1.1" width="283px" height="273px" style="shape-rendering:geometricPrecision; text-rendering:geometricPrecision; image-rendering:optimizeQuality; fill-rule:evenodd; clip-rule:evenodd" xmlns:xlink="http://www.w3.org/1999/xlink">
<g><path style="opacity:1" fill="#dfe6ec" d="M -0.5,-0.5 C 93.8333,-0.5 188.167,-0.5 282.5,-0.5C 282.5,90.5 282.5,181.5 282.5,272.5C 188.167,272.5 93.8333,272.5 -0.5,272.5C -0.5,181.5 -0.5,90.5 -0.5,-0.5 Z"/></g>
<g><path style="opacity:1" fill="#010102" d="M 131.5,32.5 C 159.728,31.1824 178.228,43.8491 187,70.5C 190.513,92.3332 183.346,109.5 165.5,122C 139.605,135.288 117.439,130.788 99,108.5C 84.2564,79.6412 90.0897,56.1412 116.5,38C 121.434,35.6369 126.434,33.8035 131.5,32.5 Z"/></g>
<g><path style="opacity:1" fill="#010101" d="M 103.5,140.5 C 126.169,140.333 148.836,140.5 171.5,141C 213.61,148.102 234.11,172.935 233,215.5C 230.09,226.743 222.923,233.576 211.5,236C 163.5,236.667 115.5,236.667 67.5,236C 56.0857,233.585 48.919,226.752 46,215.5C 43.6529,183.02 57.1529,159.853 86.5,146C 92.1465,143.718 97.8131,141.885 103.5,140.5 Z"/></g>
</svg>
